<svg width="55" height="55" viewBox="0 0 55 55" fill="none" xmlns="http://www.w3.org/2000/svg">
<path d="M12.6861 37.6472L12.6859 37.6469C8.32888 33.0752 6.37666 27.9805 6.05005 23.5106C5.72097 19.0069 7.04065 15.2267 9.09525 13.1774C13.3426 8.94087 20.2906 8.94087 24.538 13.1774L25.1335 13.7714C26.4423 15.0768 28.5577 15.0768 29.8665 13.7714L30.462 13.1774C34.7096 8.94066 41.6623 8.94121 45.9044 13.177C47.9595 15.2291 49.279 19.0096 48.95 23.5125C48.6234 27.9817 46.6712 33.0751 42.3141 37.6469L42.3139 37.6472C37.3738 42.8348 32.038 45.5095 29.216 46.6628L29.2147 46.6633C28.1211 47.112 26.8844 47.1126 25.7841 46.6628L25.784 46.6628C22.962 45.5095 17.6262 42.8348 12.6861 37.6472Z" fill="#F06254" stroke="#313131" stroke-width="2"/>
<path d="M22 21V26.8235M32.5 21V26.8235" stroke="#313131" stroke-width="2" stroke-linecap="round"/>
</svg>
