<svg width="55" height="55" viewBox="0 0 55 55" fill="none" xmlns="http://www.w3.org/2000/svg">
<path d="M41.0584 25.3572L41.0516 26.2149L41.8983 26.3521C46.1921 27.0481 49.4706 30.7745 49.4706 35.2647C49.4706 40.2515 45.428 44.2941 40.4412 44.2941H14.5588C9.57202 44.2941 5.52942 40.2515 5.52942 35.2647C5.52942 30.9797 8.51521 27.3897 12.5208 26.466L13.3085 26.2844L13.296 25.4761C13.2947 25.396 13.2941 25.3157 13.2941 25.2353C13.2941 17.1704 19.5492 10.7059 27.1765 10.7059C34.8038 10.7059 41.0588 17.1704 41.0588 25.2353C41.0588 25.2759 41.0587 25.3166 41.0584 25.3572Z" fill="#6DB1EC" stroke="#313131" stroke-width="2"/>
<path d="M23.396 25.8824L26.0044 28.4113C27.1708 29.5421 28.1526 30.849 28.9138 32.2842L30.6162 35.4938M32.4762 27.1724L29.2666 28.8747C27.8314 29.636 26.5245 30.6177 25.3937 31.7842L22.8647 34.3926" stroke="#313131" stroke-width="2" stroke-linecap="round"/>
</svg>
